<svg xmlns="http://www.w3.org/2000/svg" fill="none" viewBox="0 0 156 45" height="45" width="156">
<path fill="#D54413" d="M0 0H148C152.418 0 156 3.58172 156 8V26C156 30.4183 152.418 34 148 34H0V0Z"></path>
<path fill="white" d="M29.75 17.625C29.75 17.4938 29.6687 17.3781 29.55 17.3344L27.8094 16.6719C26.2281 16.0719 24.9937 14.7719 24.425 13.1063L23.7969 11.275C23.7531 11.1469 23.6344 11.0625 23.5 11.0625C23.3656 11.0625 23.2469 11.1469 23.2031 11.275L22.575 13.1063C22.0063 14.7719 20.7719 16.0719 19.1906 16.6719L17.45 17.3344C17.3312 17.3781 17.25 17.4938 17.25 17.625C17.25 17.7562 17.3312 17.8719 17.45 17.9156L19.1906 18.5781C20.7719 19.1781 22.0063 20.4781 22.575 22.1437L23.2031 23.975C23.2469 24.1031 23.3656 24.1875 23.5 24.1875C23.6344 24.1875 23.7531 24.1031 23.7969 23.975L24.425 22.1437C24.9937 20.4781 26.2281 19.1781 27.8094 18.5781L29.55 17.9156C29.6687 17.8719 29.75 17.7562 29.75 17.625Z"></path>
<path fill="white" d="M28.0812 11.9812L28.9969 12.3125C29.7875 12.5969 30.4031 13.2125 30.6875 14.0031L31.0188 14.9187C31.0625 15.0438 31.1813 15.125 31.3125 15.125C31.4437 15.125 31.5625 15.0438 31.6062 14.9187L31.9375 14.0031C32.2219 13.2125 32.8375 12.5969 33.6281 12.3125L34.5437 11.9812C34.6688 11.9375 34.75 11.8187 34.75 11.6875C34.75 11.5563 34.6688 11.4375 34.5437 11.3938L33.6281 11.0625C32.8375 10.7781 32.2219 10.1625 31.9375 9.37188L31.6062 8.45625C31.5625 8.33125 31.4437 8.25 31.3125 8.25C31.1813 8.25 31.0625 8.33125 31.0188 8.45625L30.6875 9.37188C30.4031 10.1625 29.7875 10.7781 28.9969 11.0625L28.0812 11.3938C27.9562 11.4375 27.875 11.5563 27.875 11.6875C27.875 11.8187 27.9562 11.9375 28.0812 11.9812ZM29.2094 11.65C30.175 11.3031 30.9281 10.55 31.275 9.58438L31.3125 9.48438L31.35 9.58438C31.6969 10.55 32.45 11.3031 33.4156 11.65L33.5156 11.6875L33.4156 11.725C32.45 12.0719 31.6969 12.825 31.35 13.7906L31.3125 13.8906L31.275 13.7906C30.9281 12.825 30.175 12.0719 29.2094 11.725L29.1094 11.6875L29.2094 11.65Z"></path>
<path fill="white" d="M34.5437 22.3313L33.7188 22.0344C33.3688 21.9063 33.0562 21.7063 32.8 21.45C32.5437 21.1938 32.3437 20.8812 32.2156 20.5312L31.9187 19.7062C31.875 19.5812 31.7562 19.5 31.625 19.5C31.4938 19.5 31.375 19.5812 31.3313 19.7062L31.0344 20.5312C30.7813 21.2312 30.2312 21.7813 29.5312 22.0344L28.7062 22.3313C28.5812 22.375 28.5 22.4938 28.5 22.625C28.5 22.7562 28.5812 22.875 28.7062 22.9187L29.5312 23.2156C30.2312 23.4687 30.7813 24.0188 31.0344 24.7188L31.3313 25.5437C31.375 25.6688 31.4938 25.75 31.625 25.75C31.7562 25.75 31.875 25.6688 31.9187 25.5437L32.2156 24.7188C32.4687 24.0188 33.0188 23.4687 33.7188 23.2156L34.5437 22.9187C34.6688 22.875 34.75 22.7562 34.75 22.625C34.75 22.4938 34.6688 22.375 34.5437 22.3313Z"></path>
<path fill="white" d="M43.672 22.5V11.3H45.176L47.624 18.18V11.3H49.144V22.5H47.736L45.192 15.364V22.5H43.672ZM51.2845 22.5V11.3H55.4285V12.788H52.8685V16.116H55.1565V17.604H52.8685V21.012H55.4765V22.5H51.2845ZM58.6301 22.548L56.8541 11.3H58.4861L59.5101 19.044L60.7421 11.3H62.1981L63.4141 19.044L64.4541 11.3H66.0381L64.2781 22.548H62.6461L61.4461 14.964L60.2621 22.548H58.6301ZM73.6999 22.644C71.9879 22.644 70.8199 20.836 70.8199 17.14V16.66C70.8199 12.964 71.9879 11.156 73.6999 11.156C75.4119 11.156 76.5799 12.964 76.5799 16.66V17.14C76.5799 20.836 75.4119 22.644 73.6999 22.644ZM73.6999 21.204C74.4519 21.204 74.9799 20.132 74.9799 17.14V16.66C74.9799 13.668 74.4519 12.596 73.6999 12.596C72.9479 12.596 72.4199 13.668 72.4199 16.66V17.14C72.4199 20.132 72.9479 21.204 73.6999 21.204ZM78.5001 22.5V11.3H80.0041L82.4521 18.18V11.3H83.9721V22.5H82.5641L80.0201 15.364V22.5H78.5001ZM90.5159 22.5V12.788H88.9959V11.3H93.6039V12.788H92.0839V22.5H90.5159ZM95.3064 22.5V11.3H96.8904V16.116H99.1144V11.3H100.682V22.5H99.1144V17.62H96.8904V22.5H95.3064ZM102.825 22.5V11.3H106.969V12.788H104.409V16.116H106.697V17.604H104.409V21.012H107.017V22.5H102.825ZM112.222 22.5V11.3H113.854L115.422 16.148L116.99 11.3H118.622V22.5H117.102V14.852L115.438 19.796H115.406L113.742 14.852V22.5H112.222ZM120.772 22.5V11.3H124.916V12.788H122.356V16.116H124.644V17.604H122.356V21.012H124.964V22.5H120.772ZM126.838 22.5V11.3H128.342L130.79 18.18V11.3H132.31V22.5H130.902L128.358 15.364V22.5H126.838ZM137.09 22.644C135.522 22.644 134.402 21.556 134.402 19.348V11.3H135.986V19.492C135.986 20.644 136.434 21.172 137.09 21.172C137.73 21.172 138.178 20.644 138.178 19.492V11.3H139.762V19.348C139.762 21.556 138.642 22.644 137.09 22.644Z"></path>
<path fill-opacity="0.91" fill="#6A3131" d="M0 34H8V45L0 34Z"></path>
</svg>
