<svg xmlns="http://www.w3.org/2000/svg" fill="none" viewBox="0 0 132 45" height="45" width="132">
<path fill-opacity="0.91" fill="#FFC400" d="M0 0H124C128.418 0 132 3.58172 132 8V26C132 30.4183 128.418 34 124 34H0V0Z"></path>
<g clip-path="url(#clip0_1965_11888)">
<path fill="black" d="M32.4573 18.7097C32.2282 15.727 30.8394 13.8578 29.6143 12.2083C28.4798 10.6813 27.5 9.36261 27.5 7.41738C27.5 7.26113 27.4125 7.11832 27.2738 7.04672C27.1346 6.97469 26.9673 6.98648 26.8408 7.07844C25.0008 8.39508 23.4656 10.6142 22.9293 12.7315C22.557 14.2056 22.5077 15.8628 22.5008 16.9573C20.8016 16.5944 20.4167 14.0527 20.4126 14.025C20.3935 13.8931 20.3129 13.7784 20.1957 13.7157C20.0773 13.6539 19.9382 13.6494 19.8181 13.7088C19.729 13.752 17.631 14.818 17.5089 19.0743C17.5004 19.2159 17.5 19.3579 17.5 19.4999C17.5 23.6349 20.8646 26.9994 25 26.9994C25.0057 26.9998 25.0118 27.0006 25.0167 26.9994C25.0183 26.9994 25.0199 26.9994 25.022 26.9994C29.1471 26.9875 32.5 23.6276 32.5 19.4999C32.5 19.292 32.4573 18.7097 32.4573 18.7097ZM25 26.1661C23.6214 26.1661 22.5 24.9715 22.5 23.5031C22.5 23.4531 22.4996 23.4026 22.5032 23.3408C22.5199 22.7215 22.6375 22.2988 22.7665 22.0176C23.0082 22.5368 23.4404 23.0141 24.1423 23.0141C24.3726 23.0141 24.5589 22.8277 24.5589 22.5974C24.5589 22.0042 24.5712 21.3198 24.7189 20.7022C24.8503 20.1545 25.1644 19.5719 25.5624 19.1048C25.7394 19.7111 26.0845 20.2017 26.4214 20.6806C26.9036 21.3658 27.402 22.0742 27.4895 23.2822C27.4948 23.3538 27.5001 23.4258 27.5001 23.5031C27.5 24.9715 26.3786 26.1661 25 26.1661Z"></path>
</g>
<path fill="black" d="M42.672 22.5V11.3H44.304C46.4 11.3 47.808 12.516 47.808 14.996V15.028C47.808 17.428 46.464 18.676 44.448 18.804H44.256V22.5H42.672ZM44.256 17.348H44.464C45.536 17.3 46.224 16.564 46.224 15.076V15.044C46.224 13.492 45.568 12.756 44.496 12.756H44.256V17.348ZM52.1905 22.644C50.4785 22.644 49.3105 20.836 49.3105 17.14V16.66C49.3105 12.964 50.4785 11.156 52.1905 11.156C53.9025 11.156 55.0705 12.964 55.0705 16.66V17.14C55.0705 20.836 53.9025 22.644 52.1905 22.644ZM52.1905 21.204C52.9425 21.204 53.4705 20.132 53.4705 17.14V16.66C53.4705 13.668 52.9425 12.596 52.1905 12.596C51.4385 12.596 50.9105 13.668 50.9105 16.66V17.14C50.9105 20.132 51.4385 21.204 52.1905 21.204ZM56.9908 22.5V11.3H58.6228C60.7188 11.3 62.1268 12.516 62.1268 14.996V15.028C62.1268 17.428 60.7828 18.676 58.7668 18.804H58.5748V22.5H56.9908ZM58.5748 17.348H58.7828C59.8548 17.3 60.5428 16.564 60.5428 15.076V15.044C60.5428 13.492 59.8868 12.756 58.8148 12.756H58.5748V17.348ZM66.4932 22.644C64.9252 22.644 63.8052 21.556 63.8052 19.348V11.3H65.3892V19.492C65.3892 20.644 65.8372 21.172 66.4932 21.172C67.1332 21.172 67.5812 20.644 67.5812 19.492V11.3H69.1652V19.348C69.1652 21.556 68.0452 22.644 66.4932 22.644ZM71.2626 22.5V11.3H72.8466V21.012H75.1346V22.5H71.2626ZM76.1753 22.5L78.3993 11.268H80.0953L82.3193 22.5H80.7193L80.2713 20.004H78.1593L77.7113 22.5H76.1753ZM78.3993 18.58H80.0312L79.2153 14.084L78.3993 18.58ZM83.9407 22.5V11.3H85.7647C86.7887 11.3 87.6527 11.588 88.2447 12.18C88.8207 12.772 89.1567 13.62 89.1567 14.788V14.9C89.1567 16.388 88.5487 17.364 87.6527 17.892L89.3487 22.5H87.6527L86.1487 18.404C86.0847 18.404 86.0047 18.42 85.9407 18.42H85.5247V22.5H83.9407ZM85.5247 16.996H85.7967C86.8687 16.996 87.5727 16.372 87.5727 14.916V14.82C87.5727 13.284 86.8207 12.772 85.7487 12.772H85.5247V16.996ZM94.3689 22.5V11.3H96.0009C98.0969 11.3 99.5049 12.516 99.5049 14.996V15.028C99.5049 17.428 98.1609 18.676 96.1449 18.804H95.9529V22.5H94.3689ZM95.9529 17.348H96.1609C97.2329 17.3 97.9209 16.564 97.9209 15.076V15.044C97.9209 13.492 97.2649 12.756 96.1929 12.756H95.9529V17.348ZM101.295 22.5V11.3H102.863V22.5H101.295ZM107.942 22.58C106.214 22.58 104.854 20.916 104.854 17.076V16.724C104.854 12.836 106.31 11.22 108.054 11.22C108.582 11.22 108.87 11.284 109.27 11.476V13.108C108.87 12.868 108.55 12.756 108.182 12.756C107.222 12.756 106.454 13.812 106.454 16.708V17.092C106.454 20.116 107.222 21.044 108.198 21.044C108.534 21.044 108.902 20.932 109.302 20.692V22.26C108.918 22.468 108.47 22.58 107.942 22.58ZM111.222 22.5V11.3H112.806V16.564L114.87 11.3H116.598L114.518 16.132L116.726 22.5H115.014L113.398 17.892L112.806 19.3V22.5H111.222Z"></path>
<path fill-opacity="0.91" fill="#A27C00" d="M0 34H8V45L0 34Z"></path>
<defs>
<clipPath id="clip0_1965_11888">
<rect transform="translate(15 7)" fill="white" height="20" width="20"></rect>
</clipPath>
</defs>
</svg>
